<svg aria-roledescription="flowchart-v2" role="graphics-document document" viewBox="0 0 1509.2369384765625 174" style="max-width: 1509.24px; background-color: transparent;" class="flowchart" xmlns:xlink="http://www.w3.org/1999/xlink" xmlns="http://www.w3.org/2000/svg" width="100%" id="my-svg"><style>#my-svg{font-size:16px;fill:#fff;}@keyframes edge-animation-frame{from{stroke-dashoffset:0;}}@keyframes dash{to{stroke-dashoffset:0;}}#my-svg .edge-animation-slow{stroke-dasharray:9,5!important;stroke-dashoffset:900;animation:dash 50s linear infinite;stroke-linecap:round;}#my-svg .edge-animation-fast{stroke-dasharray:9,5!important;stroke-dashoffset:900;animation:dash 20s linear infinite;stroke-linecap:round;}#my-svg .error-icon{fill:#FFEDD5;}#my-svg .error-text{fill:#00122a;stroke:#00122a;}#my-svg .edge-thickness-normal{stroke-width:1px;}#my-svg .edge-thickness-thick{stroke-width:3.5px;}#my-svg .edge-pattern-solid{stroke-dasharray:0;}#my-svg .edge-thickness-invisible{stroke-width:0;fill:none;}#my-svg .edge-pattern-dashed{stroke-dasharray:3;}#my-svg .edge-pattern-dotted{stroke-dasharray:2;}#my-svg .marker{fill:#F97316;stroke:#F97316;}#my-svg .marker.cross{stroke:#F97316;}#my-svg svg{font-size:16px;}#my-svg p{margin:0;}#my-svg .label{color:#fff;}#my-svg .cluster-label text{fill:#00122a;}#my-svg .cluster-label span{color:#00122a;}#my-svg .cluster-label span p{background-color:transparent;}#my-svg .label text,#my-svg span{fill:#fff;color:#fff;}#my-svg .node rect,#my-svg .node circle,#my-svg .node ellipse,#my-svg .node polygon,#my-svg .node path{fill:#EA580C;stroke:#C2410C;stroke-width:1px;}#my-svg .rough-node .label text,#my-svg .node .label text,#my-svg .image-shape .label,#my-svg .icon-shape .label{text-anchor:middle;}#my-svg .node .katex path{fill:#000;stroke:#000;stroke-width:1px;}#my-svg .rough-node .label,#my-svg .node .label,#my-svg .image-shape .label,#my-svg .icon-shape .label{text-align:center;}#my-svg .node.clickable{cursor:pointer;}#my-svg .root .anchor path{fill:#F97316!important;stroke-width:0;stroke:#F97316;}#my-svg .arrowheadPath{fill:#000000;}#my-svg .edgePath .path{stroke:#F97316;stroke-width:2.0px;}#my-svg .flowchart-link{stroke:#F97316;fill:none;}#my-svg .edgeLabel{background-color:#FB923C;text-align:center;}#my-svg .edgeLabel p{background-color:#FB923C;}#my-svg .edgeLabel rect{opacity:0.5;background-color:#FB923C;fill:#FB923C;}#my-svg .labelBkg{background-color:rgba(251, 146, 60, 0.5);}#my-svg .cluster rect{fill:#FFEDD5;stroke:hsl(34.2857142857, 60%, 81.7647058824%);stroke-width:1px;}#my-svg .cluster text{fill:#00122a;}#my-svg .cluster span{color:#00122a;}#my-svg div.mermaidTooltip{position:absolute;text-align:center;max-width:200px;padding:2px;font-size:12px;background:#FFEDD5;border:1px solid hsl(34.2857142857, 60%, 81.7647058824%);border-radius:2px;pointer-events:none;z-index:100;}#my-svg .flowchartTitleText{text-anchor:middle;font-size:18px;fill:#fff;}#my-svg rect.text{fill:none;stroke-width:0;}#my-svg .icon-shape,#my-svg .image-shape{background-color:#FB923C;text-align:center;}#my-svg .icon-shape p,#my-svg .image-shape p{background-color:#FB923C;padding:2px;}#my-svg .icon-shape rect,#my-svg .image-shape rect{opacity:0.5;background-color:#FB923C;fill:#FB923C;}#my-svg .label-icon{display:inline-block;height:1em;overflow:visible;vertical-align:-0.125em;}#my-svg .node .label-icon path{fill:currentColor;stroke:revert;stroke-width:revert;}#my-svg :root{--mermaid-font-family:"trebuchet ms",verdana,arial,sans-serif;}</style><g><marker orient="auto" markerHeight="8" markerWidth="8" markerUnits="userSpaceOnUse" refY="5" refX="5" viewBox="0 0 10 10" class="marker flowchart-v2" id="my-svg_flowchart-v2-pointEnd"><path style="stroke-width: 1; stroke-dasharray: 1, 0;" class="arrowMarkerPath" d="M 0 0 L 10 5 L 0 10 z"/></marker><marker orient="auto" markerHeight="8" markerWidth="8" markerUnits="userSpaceOnUse" refY="5" refX="4.5" viewBox="0 0 10 10" class="marker flowchart-v2" id="my-svg_flowchart-v2-pointStart"><path style="stroke-width: 1; stroke-dasharray: 1, 0;" class="arrowMarkerPath" d="M 0 5 L 10 10 L 10 0 z"/></marker><marker orient="auto" markerHeight="11" markerWidth="11" markerUnits="userSpaceOnUse" refY="5" refX="11" viewBox="0 0 10 10" class="marker flowchart-v2" id="my-svg_flowchart-v2-circleEnd"><circle style="stroke-width: 1; stroke-dasharray: 1, 0;" class="arrowMarkerPath" r="5" cy="5" cx="5"/></marker><marker orient="auto" markerHeight="11" markerWidth="11" markerUnits="userSpaceOnUse" refY="5" refX="-1" viewBox="0 0 10 10" class="marker flowchart-v2" id="my-svg_flowchart-v2-circleStart"><circle style="stroke-width: 1; stroke-dasharray: 1, 0;" class="arrowMarkerPath" r="5" cy="5" cx="5"/></marker><marker orient="auto" markerHeight="11" markerWidth="11" markerUnits="userSpaceOnUse" refY="5.2" refX="12" viewBox="0 0 11 11" class="marker cross flowchart-v2" id="my-svg_flowchart-v2-crossEnd"><path style="stroke-width: 2; stroke-dasharray: 1, 0;" class="arrowMarkerPath" d="M 1,1 l 9,9 M 10,1 l -9,9"/></marker><marker orient="auto" markerHeight="11" markerWidth="11" markerUnits="userSpaceOnUse" refY="5.2" refX="-1" viewBox="0 0 11 11" class="marker cross flowchart-v2" id="my-svg_flowchart-v2-crossStart"><path style="stroke-width: 2; stroke-dasharray: 1, 0;" class="arrowMarkerPath" d="M 1,1 l 9,9 M 10,1 l -9,9"/></marker><g class="root"><g class="clusters"><g data-look="classic" id="SAFETY" class="cluster"><rect height="124" width="804.03125" y="25" x="149.203125" style=""/><g transform="translate(506.6484375, 25)" class="cluster-label"><foreignObject height="24" width="89.140625"><div style="display: table-cell; white-space: nowrap; line-height: 1.5; max-width: 200px; text-align: center;" xmlns="http://www.w3.org/1999/xhtml"><span class="nodeLabel"><p>Safety Layer</p></span></div></foreignObject></g></g></g><g class="edgePaths"><path marker-end="url(#my-svg_flowchart-v2-pointEnd)" style="" class="edge-thickness-normal edge-pattern-solid edge-thickness-normal edge-pattern-solid flowchart-link" id="L_INPUT_VALIDATE_0" d="M89.953,87.5L95.661,87.417C101.37,87.333,112.786,87.167,122.661,87.083C132.536,87,140.87,87,148.536,87C156.203,87,163.203,87,166.703,87L170.203,87"/><path marker-end="url(#my-svg_flowchart-v2-pointEnd)" style="" class="edge-thickness-normal edge-pattern-solid edge-thickness-normal edge-pattern-solid flowchart-link" id="L_VALIDATE_LEAK_0" d="M340.516,87L344.682,87C348.849,87,357.182,87,364.849,87C372.516,87,379.516,87,383.016,87L386.516,87"/><path marker-end="url(#my-svg_flowchart-v2-pointEnd)" style="" class="edge-thickness-normal edge-pattern-solid edge-thickness-normal edge-pattern-solid flowchart-link" id="L_LEAK_SANITIZE_0" d="M551.328,87L555.495,87C559.661,87,567.995,87,575.661,87C583.328,87,590.328,87,593.828,87L597.328,87"/><path marker-end="url(#my-svg_flowchart-v2-pointEnd)" style="" class="edge-thickness-normal edge-pattern-solid edge-thickness-normal edge-pattern-solid flowchart-link" id="L_SANITIZE_POLICY_0" d="M724.188,87L728.354,87C732.521,87,740.854,87,748.521,87C756.188,87,763.188,87,766.688,87L770.188,87"/><path marker-end="url(#my-svg_flowchart-v2-pointEnd)" style="" class="edge-thickness-normal edge-pattern-solid edge-thickness-normal edge-pattern-solid flowchart-link" id="L_POLICY_CLEAN_0" d="M928.234,87L932.401,87C936.568,87,944.901,87,953.234,87C961.568,87,969.901,87,977.651,87.07C985.401,87.141,992.568,87.281,996.152,87.351L999.735,87.422"/><path marker-end="url(#my-svg_flowchart-v2-pointEnd)" style="" class="edge-thickness-normal edge-pattern-solid edge-thickness-normal edge-pattern-solid flowchart-link" id="L_CLEAN_PROCESS_0" d="M1084.369,68L1093.146,62.5C1101.924,57,1119.479,46,1133.644,40.5C1147.81,35,1158.586,35,1163.974,35L1169.362,35"/><path marker-end="url(#my-svg_flowchart-v2-pointEnd)" style="" class="edge-thickness-normal edge-pattern-solid edge-thickness-normal edge-pattern-solid flowchart-link" id="L_CLEAN_BLOCK_0" d="M1084.369,107L1093.146,112.333C1101.924,117.667,1119.479,128.333,1135.168,133.667C1150.857,139,1164.68,139,1171.591,139L1178.503,139"/><path marker-end="url(#my-svg_flowchart-v2-pointEnd)" style="" class="edge-thickness-normal edge-pattern-solid edge-thickness-normal edge-pattern-solid flowchart-link" id="L_PROCESS_OUTPUT_0" d="M1347.362,35L1351.529,35C1355.695,35,1364.029,35,1375.741,40.125C1387.454,45.251,1402.547,55.502,1410.093,60.627L1417.639,65.753"/><path marker-end="url(#my-svg_flowchart-v2-pointEnd)" style="" class="edge-thickness-normal edge-pattern-solid edge-thickness-normal edge-pattern-solid flowchart-link" id="L_BLOCK_OUTPUT_0" d="M1338.221,139L1343.911,139C1349.602,139,1360.982,139,1374.213,134.033C1387.444,129.067,1402.526,119.133,1410.066,114.167L1417.607,109.2"/></g><g class="edgeLabels"><g class="edgeLabel"><g transform="translate(0, 0)" class="label"><foreignObject height="0" width="0"><div style="display: table-cell; white-space: nowrap; line-height: 1.5; max-width: 200px; text-align: center;" class="labelBkg" xmlns="http://www.w3.org/1999/xhtml"><span class="edgeLabel"></span></div></foreignObject></g></g><g class="edgeLabel"><g transform="translate(0, 0)" class="label"><foreignObject height="0" width="0"><div style="display: table-cell; white-space: nowrap; line-height: 1.5; max-width: 200px; text-align: center;" class="labelBkg" xmlns="http://www.w3.org/1999/xhtml"><span class="edgeLabel"></span></div></foreignObject></g></g><g class="edgeLabel"><g transform="translate(0, 0)" class="label"><foreignObject height="0" width="0"><div style="display: table-cell; white-space: nowrap; line-height: 1.5; max-width: 200px; text-align: center;" class="labelBkg" xmlns="http://www.w3.org/1999/xhtml"><span class="edgeLabel"></span></div></foreignObject></g></g><g class="edgeLabel"><g transform="translate(0, 0)" class="label"><foreignObject height="0" width="0"><div style="display: table-cell; white-space: nowrap; line-height: 1.5; max-width: 200px; text-align: center;" class="labelBkg" xmlns="http://www.w3.org/1999/xhtml"><span class="edgeLabel"></span></div></foreignObject></g></g><g class="edgeLabel"><g transform="translate(0, 0)" class="label"><foreignObject height="0" width="0"><div style="display: table-cell; white-space: nowrap; line-height: 1.5; max-width: 200px; text-align: center;" class="labelBkg" xmlns="http://www.w3.org/1999/xhtml"><span class="edgeLabel"></span></div></foreignObject></g></g><g transform="translate(1137.0338516235352, 35)" class="edgeLabel"><g transform="translate(-11.328125, -12)" class="label"><foreignObject height="24" width="22.65625"><div style="display: table-cell; white-space: nowrap; line-height: 1.5; max-width: 200px; text-align: center;" class="labelBkg" xmlns="http://www.w3.org/1999/xhtml"><span class="edgeLabel"><p>Yes</p></span></div></foreignObject></g></g><g transform="translate(1137.0338516235352, 139)" class="edgeLabel"><g transform="translate(-9.3984375, -12)" class="label"><foreignObject height="24" width="18.796875"><div style="display: table-cell; white-space: nowrap; line-height: 1.5; max-width: 200px; text-align: center;" class="labelBkg" xmlns="http://www.w3.org/1999/xhtml"><span class="edgeLabel"><p>No</p></span></div></foreignObject></g></g><g class="edgeLabel"><g transform="translate(0, 0)" class="label"><foreignObject height="0" width="0"><div style="display: table-cell; white-space: nowrap; line-height: 1.5; max-width: 200px; text-align: center;" class="labelBkg" xmlns="http://www.w3.org/1999/xhtml"><span class="edgeLabel"></span></div></foreignObject></g></g><g class="edgeLabel"><g transform="translate(0, 0)" class="label"><foreignObject height="0" width="0"><div style="display: table-cell; white-space: nowrap; line-height: 1.5; max-width: 200px; text-align: center;" class="labelBkg" xmlns="http://www.w3.org/1999/xhtml"><span class="edgeLabel"></span></div></foreignObject></g></g></g><g class="nodes"><g transform="translate(53.6015625, 87)" id="flowchart-INPUT-0" class="node default"><polygon style="fill:#4F46E5 !important;stroke:#3730A3 !important" transform="translate(-26.1015625,19.5)" class="label-container" points="-19.5,0 52.203125,0 71.703125,-39 0,-39"/><g transform="translate(-18.6015625, -12)" style="color:#fff !important" class="label"><rect/><foreignObject height="24" width="37.203125"><div xmlns="http://www.w3.org/1999/xhtml" style="color: rgb(255, 255, 255) !important; display: table-cell; white-space: nowrap; line-height: 1.5; max-width: 200px; text-align: center;"><span class="nodeLabel" style="color:#fff !important"><p>Input</p></span></div></foreignObject></g></g><g transform="translate(257.359375, 87)" id="flowchart-VALIDATE-1" class="node default"><rect height="54" width="166.3125" y="-27" x="-83.15625" style="" class="basic label-container"/><g transform="translate(-53.15625, -12)" style="" class="label"><rect/><foreignObject height="24" width="106.3125"><div style="display: table-cell; white-space: nowrap; line-height: 1.5; max-width: 200px; text-align: center;" xmlns="http://www.w3.org/1999/xhtml"><span class="nodeLabel"><p>Input Validator</p></span></div></foreignObject></g></g><g transform="translate(470.921875, 87)" id="flowchart-LEAK-2" class="node default"><rect height="54" width="160.8125" y="-27" x="-80.40625" style="" class="basic label-container"/><g transform="translate(-50.40625, -12)" style="" class="label"><rect/><foreignObject height="24" width="100.8125"><div style="display: table-cell; white-space: nowrap; line-height: 1.5; max-width: 200px; text-align: center;" xmlns="http://www.w3.org/1999/xhtml"><span class="nodeLabel"><p>Leak Detector</p></span></div></foreignObject></g></g><g transform="translate(662.7578125, 87)" id="flowchart-SANITIZE-3" class="node default"><rect height="54" width="122.859375" y="-27" x="-61.4296875" style="" class="basic label-container"/><g transform="translate(-31.4296875, -12)" style="" class="label"><rect/><foreignObject height="24" width="62.859375"><div style="display: table-cell; white-space: nowrap; line-height: 1.5; max-width: 200px; text-align: center;" xmlns="http://www.w3.org/1999/xhtml"><span class="nodeLabel"><p>Sanitizer</p></span></div></foreignObject></g></g><g transform="translate(851.2109375, 87)" id="flowchart-POLICY-4" class="node default"><rect height="54" width="154.046875" y="-27" x="-77.0234375" style="" class="basic label-container"/><g transform="translate(-47.0234375, -12)" style="" class="label"><rect/><foreignObject height="24" width="94.046875"><div style="display: table-cell; white-space: nowrap; line-height: 1.5; max-width: 200px; text-align: center;" xmlns="http://www.w3.org/1999/xhtml"><span class="nodeLabel"><p>Policy Engine</p></span></div></foreignObject></g></g><g transform="translate(1051.9700508117676, 87)" id="flowchart-CLEAN-5" class="node default"><g class="basic label-container"><path style="" fill="#EA580C" stroke-width="0" stroke="none" d="M-38.985677083333336 -19.5 C-27.70485811554162 -19.5, -16.424039147749898 -19.5, 0 -19.5 C10.740705260985134 -19.5, 21.48141052197027 -19.5, 38.985677083333336 -19.5 C42.33156165850408 -12.808230849658518, 45.67744623367482 -6.116461699317034, 48.735677083333336 0 C46.08407692999821 5.303200306670245, 43.432476776663094 10.60640061334049, 38.985677083333336 19.5 C26.58429070352679 19.5, 14.182904323720244 19.5, 0 19.5 C-10.386376982321076 19.5, -20.772753964642153 19.5, -38.985677083333336 19.5 C-41.29914552175701 14.873063123152644, -43.612613960180695 10.246126246305288, -48.735677083333336 0 C-45.117750376842544 -7.235853412981588, -41.499823670351745 -14.471706825963176, -38.985677083333336 -19.5"/><path style="" stroke-dasharray="0 0" fill="none" stroke-width="1.3" stroke="#C2410C" d="M-38.985677083333336 -19.5 C-29.940690514228756 -19.5, -20.895703945124172 -19.5, 0 -19.5 M-38.985677083333336 -19.5 C-27.4291169048628 -19.5, -15.872556726392261 -19.5, 0 -19.5 M0 -19.5 C14.972610667865247 -19.5, 29.945221335730494 -19.5, 38.985677083333336 -19.5 M0 -19.5 C9.662858507510709 -19.5, 19.325717015021418 -19.5, 38.985677083333336 -19.5 M38.985677083333336 -19.5 C42.152847062980825 -13.165660040705028, 45.32001704262831 -6.831320081410055, 48.735677083333336 0 M38.985677083333336 -19.5 C42.74834129163893 -11.974671583388812, 46.511005499944524 -4.449343166777622, 48.735677083333336 0 M48.735677083333336 0 C45.33043071390109 6.810492738864503, 41.92518434446883 13.620985477729006, 38.985677083333336 19.5 M48.735677083333336 0 C46.60815856147351 4.255037043719649, 44.48064003961369 8.510074087439298, 38.985677083333336 19.5 M38.985677083333336 19.5 C26.125196062597894 19.5, 13.264715041862448 19.5, 0 19.5 M38.985677083333336 19.5 C25.02002286253297 19.5, 11.054368641732605 19.5, 0 19.5 M0 19.5 C-10.490253611308383 19.5, -20.980507222616765 19.5, -38.985677083333336 19.5 M0 19.5 C-13.964386827344914 19.5, -27.928773654689827 19.5, -38.985677083333336 19.5 M-38.985677083333336 19.5 C-41.31788747485555 14.83557921695557, -43.65009786637777 10.171158433911136, -48.735677083333336 0 M-38.985677083333336 19.5 C-41.033003281830375 15.405347603005929, -43.08032948032741 11.310695206011856, -48.735677083333336 0 M-48.735677083333336 0 C-45.230124255490765 -7.01110565568514, -41.72457142764819 -14.02221131137028, -38.985677083333336 -19.5 M-48.735677083333336 0 C-45.409759180006866 -6.65183580665294, -42.083841276680396 -13.30367161330588, -38.985677083333336 -19.5"/></g><g transform="translate(-23.0234375, -12)" style="" class="label"><rect/><foreignObject height="24" width="46.046875"><div style="display: table-cell; white-space: nowrap; line-height: 1.5; max-width: 200px; text-align: center;" xmlns="http://www.w3.org/1999/xhtml"><span class="nodeLabel"><p>Clean?</p></span></div></foreignObject></g></g><g transform="translate(1260.3619766235352, 35)" id="flowchart-PROCESS-6" class="node default"><rect height="54" width="174" y="-27" x="-87" style="" class="basic label-container"/><g transform="translate(-57, -12)" style="" class="label"><rect/><foreignObject height="24" width="114"><div style="display: table-cell; white-space: nowrap; line-height: 1.5; max-width: 200px; text-align: center;" xmlns="http://www.w3.org/1999/xhtml"><span class="nodeLabel"><p>Process Request</p></span></div></foreignObject></g></g><g transform="translate(1260.3619766235352, 139)" id="flowchart-BLOCK-7" class="node default"><rect height="54" width="155.71875" y="-27" x="-77.859375" style="fill:#DC2626 !important;stroke:#B91C1C !important" class="basic label-container"/><g transform="translate(-47.859375, -12)" style="color:#fff !important" class="label"><rect/><foreignObject height="24" width="95.71875"><div xmlns="http://www.w3.org/1999/xhtml" style="color: rgb(255, 255, 255) !important; display: table-cell; white-space: nowrap; line-height: 1.5; max-width: 200px; text-align: center;"><span class="nodeLabel" style="color:#fff !important"><p>Block/Redact</p></span></div></foreignObject></g></g><g transform="translate(1449.2994766235352, 87)" id="flowchart-OUTPUT-8" class="node default"><polygon style="fill:#059669 !important;stroke:#047857 !important" transform="translate(-32.4375,19.5)" class="label-container" points="-19.5,0 64.875,0 84.375,-39 0,-39"/><g transform="translate(-24.9375, -12)" style="color:#fff !important" class="label"><rect/><foreignObject height="24" width="49.875"><div xmlns="http://www.w3.org/1999/xhtml" style="color: rgb(255, 255, 255) !important; display: table-cell; white-space: nowrap; line-height: 1.5; max-width: 200px; text-align: center;"><span class="nodeLabel" style="color:#fff !important"><p>Output</p></span></div></foreignObject></g></g></g></g></g></svg>